<?xml version="1.0" encoding="utf-8"?>
<!-- Generator: Adobe Illustrator 25.1.0, SVG Export Plug-In . SVG Version: 6.00 Build 0)  -->
<svg version="1.1" id="Layer_1" xmlns="http://www.w3.org/2000/svg" xmlns:xlink="http://www.w3.org/1999/xlink" x="0px" y="0px"
	 viewBox="0 0 20 20" style="enable-background:new 0 0 20 20;" xml:space="preserve">
<style type="text/css">
	.st0{fill:#77CDF3;}
	.st1{opacity:0.24;}
	.st2{fill:url(#SVGID_1_);}
	.st3{opacity:0.24;fill:none;stroke:#898989;stroke-width:3;stroke-linecap:round;stroke-linejoin:round;stroke-miterlimit:10;}
	.st4{fill:none;stroke:#FFFFFF;stroke-width:2;stroke-linecap:round;stroke-linejoin:round;stroke-miterlimit:10;}
</style>
<path class="st0" d="M15.9,18.5H4.1c-1.4,0-2.6-1.2-2.6-2.6V4.1c0-1.4,1.2-2.6,2.6-2.6h11.8c1.4,0,2.6,1.2,2.6,2.6v11.8
	C18.5,17.3,17.3,18.5,15.9,18.5z"/>
<g class="st1">
	<image style="overflow:visible;" width="1016" height="1016" xlink:href="DACB45D2.png"  transform="matrix(1 0 0 1 -498 -498)">
	</image>
</g>
<linearGradient id="SVGID_1_" gradientUnits="userSpaceOnUse" x1="20.655" y1="21.4357" x2="-10.1748" y2="-12.0111">
	<stop  offset="5.562830e-02" style="stop-color:#DEE1E2"/>
	<stop  offset="0.4248" style="stop-color:#FFFFFF"/>
	<stop  offset="0.8446" style="stop-color:#FFFFFF"/>
</linearGradient>
<path class="st2" d="M14.5,16.3H5.6c-1.1,0-2-0.9-2-2V5.5c0-1.1,0.9-2,2-2h8.9c1.1,0,2,0.9,2,2v8.9C16.5,15.5,15.6,16.3,14.5,16.3z"
	/>
</svg>
