<?xml version="1.0" encoding="utf-8"?>
<!-- Generator: Adobe Illustrator 25.1.0, SVG Export Plug-In . SVG Version: 6.00 Build 0)  -->
<svg version="1.1" id="Layer_1" xmlns="http://www.w3.org/2000/svg" xmlns:xlink="http://www.w3.org/1999/xlink" x="0px" y="0px"
	 viewBox="0 0 20 20" style="enable-background:new 0 0 20 20;" xml:space="preserve">
<style type="text/css">
	.st0{fill:none;stroke:url(#SVGID_1_);stroke-width:1.0329;stroke-miterlimit:10;}
</style>
<radialGradient id="SVGID_1_" cx="10" cy="10.1208" r="8.4271" gradientUnits="userSpaceOnUse">
	<stop  offset="5.562820e-02" style="stop-color:#ED8EAE"/>
	<stop  offset="0.4248" style="stop-color:#E3396A"/>
	<stop  offset="0.852" style="stop-color:#C6265C"/>
</radialGradient>
<path class="st0" d="M17.9,7.2c0-2.8-1.9-5.1-4.4-5.1c-1.4,0-2.6,0.7-3.4,1.9l0,0l0,0C9.2,2.9,8,2.2,6.6,2.2c-2.5,0-4.4,2.3-4.4,5.1
	c0,1.3,0.5,2.5,1.1,3.4l0,0l0,0c0.2,0.2,0.4,0.4,0.6,0.6l6.2,6.6l6.2-6.6c0.2-0.2,0.4-0.4,0.6-0.6l0,0l0,0
	C17.4,9.7,17.9,8.5,17.9,7.2z"/>
</svg>
