<svg id="Layer_1" data-name="Layer 1" xmlns="http://www.w3.org/2000/svg" viewBox="0 0 206.72 85.06"><defs><style>.cls-1{fill:#e3396a;}.cls-2{fill:#77cdf3;}.cls-3{fill:#c9c9c9;}</style></defs><path class="cls-1" d="M101,44l1.9.4.9,27a1.42,1.42,0,0,1-1.5,1.3,1.82,1.82,0,0,1-1.4-.6,2.37,2.37,0,0,1-.9-1.5Z"/><path class="cls-1" d="M108.8,43.71a2.28,2.28,0,0,1,1.9,1,3.49,3.49,0,0,1,.8,2.2,2.6,2.6,0,0,1-.4,1.5,1.43,1.43,0,0,1-1.2.6,2.23,2.23,0,0,1-1.8-1,3.6,3.6,0,0,1-.7-2.2,2.82,2.82,0,0,1,.4-1.5A.92.92,0,0,1,108.8,43.71Zm-.6,7.5,1.9.4c.2,2.3.4,5.9.6,10.7s.3,7.9.3,9.1a1.42,1.42,0,0,1-1.5,1.3,1.82,1.82,0,0,1-1.4-.6,2.9,2.9,0,0,1-.9-1.5c.1-1.1.2-4.1.3-8.9.3-4.8.4-8.3.7-10.5Z"/><path class="cls-2" d="M115.7,44l1.9.4.9,27a1.42,1.42,0,0,1-1.5,1.3,1.82,1.82,0,0,1-1.4-.6,2.37,2.37,0,0,1-.9-1.5Z"/><path class="cls-2" d="M123.5,43.71a2.28,2.28,0,0,1,1.9,1,3.49,3.49,0,0,1,.8,2.2,2.82,2.82,0,0,1-.4,1.5,1.43,1.43,0,0,1-1.2.6,2.23,2.23,0,0,1-1.8-1,3.6,3.6,0,0,1-.7-2.2,2.82,2.82,0,0,1,.4-1.5A.92.92,0,0,1,123.5,43.71Zm-.6,7.5,1.9.4c.2,2.3.4,5.9.6,10.7s.3,7.9.3,9.1a1.42,1.42,0,0,1-1.5,1.3,1.82,1.82,0,0,1-1.4-.6,2.75,2.75,0,0,1-.8-1.5c0-1.1.2-4.1.3-8.9S122.7,53.41,122.9,51.21Z"/><path class="cls-2" d="M142.2,51.11l1.9-.4v2c.2,6.1.3,10.1.2,11.9v6.1a24.25,24.25,0,0,1-.2,4,14.49,14.49,0,0,1-.7,3.5,10.11,10.11,0,0,1-1.3,3,6.34,6.34,0,0,1-2.4,1.9,9.46,9.46,0,0,1-3.7.8c-1.2,0-3.4-.2-6.5-.5a4.4,4.4,0,0,0-.2-1,2.49,2.49,0,0,1-.1-.8,3.4,3.4,0,0,1,.1-1l2.6.3a18.7,18.7,0,0,0,3.4.3,5.23,5.23,0,0,0,4.4-1.8c1-1.2,1.6-3.4,1.6-6.6A8.21,8.21,0,0,1,137,74a6.45,6.45,0,0,1-3.3-.8,6.09,6.09,0,0,1-2.2-2,8.37,8.37,0,0,1-1.3-2.9,19.42,19.42,0,0,1-.7-3.3c-.1-1.1-.2-2.3-.2-3.4a13.55,13.55,0,0,1,2-7.6,6.77,6.77,0,0,1,6-3,8,8,0,0,1,4.7,1.5A3,3,0,0,0,142.2,51.11Zm-.4,17.5.1-13.4a2.35,2.35,0,0,0-1.6-1.2,7,7,0,0,0-2.9-.4,3.92,3.92,0,0,0-3.5,2.1,8.65,8.65,0,0,0-1.2,5c0,1,.1,2,.2,3a16.54,16.54,0,0,0,.7,3.2,5.6,5.6,0,0,0,1.6,2.8,4.11,4.11,0,0,0,2.8,1.1,4.65,4.65,0,0,0,2.3-.6A5.72,5.72,0,0,0,141.8,68.61Z"/><path class="cls-2" d="M148.1,42.61l2.1.5c.1,1.1.1,3,.2,5.5s.1,4.2.2,5.2a7.51,7.51,0,0,1,5.4-2.4,7,7,0,0,1,7,7.3v13.7a2.2,2.2,0,0,1-1.4.2,9.85,9.85,0,0,1-1.7-.2v-2c0-1.1,0-3-.1-5.6s-.1-4.9-.1-6.7c-.4-2.6-1.7-3.8-3.9-3.8a5.38,5.38,0,0,0-2.8.8,4.94,4.94,0,0,0-2,1.8c.1,1.8.1,4.4.2,7.9s.1,6.1.1,7.6a9.85,9.85,0,0,1-1.7.2,8.81,8.81,0,0,1-1.7-.2c0-1.4.1-3.5.1-6.5V49.71C148,47.21,148,44.81,148.1,42.61Z"/><path class="cls-2" d="M177.8,52.41l.5,1.9c-.8.1-1.9.2-3.5.4s-2.7.4-3.5.4a24.84,24.84,0,0,1,.2,3.8c0,1.6.1,2.9.1,4.1a20.85,20.85,0,0,0,.4,3.5,4.89,4.89,0,0,0,1.3,2.7,3.61,3.61,0,0,0,2.6.9,8.15,8.15,0,0,0,3.1-.6c.5,1,.9,1.8,1.2,2.3a18.92,18.92,0,0,1-6.7,1.2,3,3,0,0,1-2.2-.8,4.5,4.5,0,0,1-1.4-1.9,9.61,9.61,0,0,1-.8-2.9c-.2-1.1-.3-2.2-.4-3.3s-.1-2.2-.1-3.6v-5.6c-.3,0-.9.1-2,.1h-1.8c-.2-1.9-.3-2.8-.3-2.9a3.4,3.4,0,0,0,1,.1,6.25,6.25,0,0,0,1.2-.1,6.25,6.25,0,0,1,1.2-.1h.7c.1-3.1.2-5.6.4-7.5l1.9.5a17,17,0,0,0,.1,2.2,20.83,20.83,0,0,1,0,2.5v2.2c.7.1,1.8.1,3.3.2S177.1,52.41,177.8,52.41Z"/><path class="cls-2" d="M194.8,52.51l-.4,1.7a19.63,19.63,0,0,0-6.3-1.7,4.46,4.46,0,0,0-2.8.6c-.6.4-.8,1.3-.8,2.6a3.22,3.22,0,0,0,1.2,2.6,7.85,7.85,0,0,0,2.8,1.6c1.1.4,2.2.8,3.3,1.3a6.9,6.9,0,0,1,2.8,2,4.43,4.43,0,0,1,1.1,3.3,6.34,6.34,0,0,1-2,4.7,7,7,0,0,1-5.1,2,9.07,9.07,0,0,1-4.3-1,10.76,10.76,0,0,1-3.2-2.4l1.2-1.3c.3.1.8.4,1.5.7s1.1.5,1.4.6l1.2.3a9.85,9.85,0,0,0,1.7.2,6,6,0,0,0,3.2-.9,2.62,2.62,0,0,0,1.2-2.4,3,3,0,0,0-.6-1.8,4.43,4.43,0,0,0-1.5-1.2,22,22,0,0,0-2.1-.9c-.8-.3-1.5-.6-2.3-.9a14.32,14.32,0,0,1-2.1-1.2,4.26,4.26,0,0,1-1.5-2,7.65,7.65,0,0,1-.6-3,7,7,0,0,1,1.3-4.2,4.69,4.69,0,0,1,3.8-1.7,8.33,8.33,0,0,1,2.2.3,14.5,14.5,0,0,1,1.9.6c.5.2,1.2.4,2.1.8Z"/><rect class="cls-3" x="42.7" y="46.76" width="2.6" height="26"/><rect class="cls-3" x="42.3" y="40.86" width="3.5" height="3.5"/><polygon class="cls-3" points="13.6 70.26 13.6 36.06 11 36.06 11 72.86 13.6 72.86 13.6 72.86 35.5 72.86 35.5 70.26 13.6 70.26"/><polygon class="cls-3" points="50.5 18.06 30.8 18.06 37.6 1.16 50.5 1.16 50.5 18.06"/><rect class="cls-3" x="56.6" y="46.76" width="2.6" height="26"/><rect class="cls-3" x="56.1" y="40.86" width="3.5" height="3.5"/><polygon class="cls-3" points="88.3 36.06 88.3 70.26 66.4 70.26 66.4 72.86 88.3 72.86 88.3 72.86 91 72.86 91 36.06 88.3 36.06"/><path class="cls-3" d="M58,23.36v-5.3H71.1L64.4,1.16h-13v16.9h5.8v5.3a1.45,1.45,0,0,0-.7,1,1.1,1.1,0,1,0,2.2.2v-.2A1.2,1.2,0,0,0,58,23.36Z"/><path class="cls-3" d="M56.3,36.16a.52.52,0,0,0,.2-.4v-.1a.94.94,0,0,0-1-1H51.7V19H50.1v15.7H46.3a.94.94,0,0,0-1,1v.1a.76.76,0,0,0,.2.4H18.1v2.6H83.8v-2.6Z"/></svg>