<svg xmlns="http://www.w3.org/2000/svg" xmlns:xlink="http://www.w3.org/1999/xlink"><defs><style>
    .sprite-symbol-usage {display: none;}
    .sprite-symbol-usage:target {display: inline;}
  </style><symbol viewBox="0 0 50 50" id="adelete">
<style type="text/css">
	#adelete .st0{fill:none;stroke:#FF0000;stroke-width:3.6923;stroke-linecap:round;stroke-linejoin:round;stroke-miterlimit:10;}
</style>
<g>
	<rect x="2.5" y="2.5" width="45" height="45" />
</g>
<line class="st0" x1="2.8" y1="3.6" x2="46.8" y2="47.2" />
<line class="st0" x1="3.2" y1="47.5" x2="46.8" y2="3.2" />
</symbol><symbol viewBox="0 0 20 20" id="cart-icon1-01_shopping-cart-01">
<style type="text/css">
	#cart-icon1-01_shopping-cart-01 .st0{fill:url(#SVGID_1_);}
	#cart-icon1-01_shopping-cart-01 .st1{fill:none;stroke:#E3396A;stroke-width:1.7872;stroke-linecap:round;stroke-linejoin:round;stroke-miterlimit:10;}
	#cart-icon1-01_shopping-cart-01 .st2{fill:#878685;}
	#cart-icon1-01_shopping-cart-01 .st3{fill:none;stroke:#878684;stroke-width:0.9168;stroke-linecap:round;stroke-linejoin:round;}
	#cart-icon1-01_shopping-cart-01 .st4{fill:none;stroke:#878684;stroke-width:1.0126;stroke-linecap:round;stroke-linejoin:round;}
	#cart-icon1-01_shopping-cart-01 .st5{fill:url(#cart-icon1-01_shopping-cart-01_Path_22_4_);}
	#cart-icon1-01_shopping-cart-01 .st6{fill:none;stroke:#FFFFFF;stroke-linecap:round;stroke-linejoin:round;stroke-miterlimit:10;}
	#cart-icon1-01_shopping-cart-01 .st7{fill:none;stroke:url(#cart-icon1-01_shopping-cart-01_Path_23_4_);stroke-miterlimit:10;}
	#cart-icon1-01_shopping-cart-01 .st8{fill:url(#cart-icon1-01_shopping-cart-01_Ellipse_2_4_);}
	#cart-icon1-01_shopping-cart-01 .st9{fill:url(#cart-icon1-01_shopping-cart-01_Ellipse_3_4_);}
	#cart-icon1-01_shopping-cart-01 .st10{fill:url(#Path_22_5_);}
	#cart-icon1-01_shopping-cart-01 .st11{fill:none;stroke:url(#Path_23_5_);stroke-miterlimit:10;}
	#cart-icon1-01_shopping-cart-01 .st12{fill:url(#Ellipse_2_5_);}
	#cart-icon1-01_shopping-cart-01 .st13{fill:url(#Ellipse_3_5_);}
</style>
<g id="cart-icon1-01_shopping-cart-01_shoping_cart_3_" transform="translate(1 1)">
	
	<path id="cart-icon1-01_shopping-cart-01_Path_22_3_" class="st5" d="M16.6,8.2l-8.6,2.5L6.2,1.7l10.2,0.1c0.5,0,1,0.4,1,1v4.5C17.5,7.7,17.1,8.1,16.6,8.2z" />
	
	<path id="cart-icon1-01_shopping-cart-01_Path_23_3_" class="st7" d="M1,1h3.8l2,10l-1.6,2.1H17" />
	
	<ellipse id="cart-icon1-01_shopping-cart-01_Ellipse_2_3_" class="st8" cx="8.8" cy="16" rx="1.5" ry="1.5" />
	
	<ellipse id="cart-icon1-01_shopping-cart-01_Ellipse_3_3_" class="st9" cx="15" cy="16" rx="1.5" ry="1.5" />
</g>
</symbol><radialGradient id="cart-icon1-01_shopping-cart-01_Path_22_4_" cx="7.656" cy="2.138" r="13.7991" gradientUnits="userSpaceOnUse">
		<stop offset="5.562841e-02" style="stop-color:#999999" />
		<stop offset="0.4248" style="stop-color:#8C8929" />
		<stop offset="0.852" style="stop-color:#878684" />
	</radialGradient><radialGradient id="cart-icon1-01_shopping-cart-01_Path_23_4_" cx="8.9749" cy="7.0956" r="7.3089" gradientUnits="userSpaceOnUse">
		<stop offset="5.562841e-02" style="stop-color:#999999" />
		<stop offset="0.4248" style="stop-color:#8C8929" />
		<stop offset="0.852" style="stop-color:#878684" />
	</radialGradient><radialGradient id="cart-icon1-01_shopping-cart-01_Ellipse_2_4_" cx="8.1596" cy="15.5" r="2.2059" gradientUnits="userSpaceOnUse">
		<stop offset="5.562841e-02" style="stop-color:#999999" />
		<stop offset="0.4248" style="stop-color:#8C8929" />
		<stop offset="0.852" style="stop-color:#878684" />
	</radialGradient><radialGradient id="cart-icon1-01_shopping-cart-01_Ellipse_3_4_" cx="14.9752" cy="16.0386" r="1.4718" gradientUnits="userSpaceOnUse">
		<stop offset="5.562841e-02" style="stop-color:#999999" />
		<stop offset="0.4248" style="stop-color:#8C8929" />
		<stop offset="0.852" style="stop-color:#878684" />
	</radialGradient><symbol viewBox="0 0 20 20" id="cart-icon1-02_shopping-cart-02">
<style type="text/css">
	#cart-icon1-02_shopping-cart-02 .st0{fill:url(#SVGID_1_);}
	#cart-icon1-02_shopping-cart-02 .st1{fill:none;stroke:#E3396A;stroke-width:1.7872;stroke-linecap:round;stroke-linejoin:round;stroke-miterlimit:10;}
	#cart-icon1-02_shopping-cart-02 .st2{fill:#878685;}
	#cart-icon1-02_shopping-cart-02 .st3{fill:none;stroke:#878684;stroke-width:0.9168;stroke-linecap:round;stroke-linejoin:round;}
	#cart-icon1-02_shopping-cart-02 .st4{fill:none;stroke:#878684;stroke-width:1.0126;stroke-linecap:round;stroke-linejoin:round;}
	#cart-icon1-02_shopping-cart-02 .st5{fill:url(#cart-icon1-02_shopping-cart-02_Path_22_4_);}
	#cart-icon1-02_shopping-cart-02 .st6{fill:none;stroke:#FFFFFF;stroke-linecap:round;stroke-linejoin:round;stroke-miterlimit:10;}
	#cart-icon1-02_shopping-cart-02 .st7{fill:none;stroke:url(#cart-icon1-02_shopping-cart-02_Path_23_4_);stroke-miterlimit:10;}
	#cart-icon1-02_shopping-cart-02 .st8{fill:url(#cart-icon1-02_shopping-cart-02_Ellipse_2_4_);}
	#cart-icon1-02_shopping-cart-02 .st9{fill:url(#cart-icon1-02_shopping-cart-02_Ellipse_3_4_);}
	#cart-icon1-02_shopping-cart-02 .st10{fill:url(#Path_22_5_);}
	#cart-icon1-02_shopping-cart-02 .st11{fill:none;stroke:url(#Path_23_5_);stroke-miterlimit:10;}
	#cart-icon1-02_shopping-cart-02 .st12{fill:url(#Ellipse_2_5_);}
	#cart-icon1-02_shopping-cart-02 .st13{fill:url(#Ellipse_3_5_);}
</style>
<g id="cart-icon1-02_shopping-cart-02_shoping_cart_2_" transform="translate(1 1)">
	
	<path id="cart-icon1-02_shopping-cart-02_Path_22_2_" class="st5" d="M16.6,8.2l-8.6,2.5L6.2,1.7l10.2,0.1c0.5,0,1,0.4,1,1v4.5C17.5,7.7,17.1,8.1,16.6,8.2z" />
	<line class="st6" x1="12.2" y1="3.7" x2="12.2" y2="6.6" />
	<line class="st6" x1="10.8" y1="5.1" x2="13.7" y2="5.1" />
	
	<path id="cart-icon1-02_shopping-cart-02_Path_23_2_" class="st7" d="M1,1h3.8l2,10l-1.6,2.1H17" />
	
	<ellipse id="cart-icon1-02_shopping-cart-02_Ellipse_2_2_" class="st8" cx="8.8" cy="16" rx="1.5" ry="1.5" />
	
	<ellipse id="cart-icon1-02_shopping-cart-02_Ellipse_3_2_" class="st9" cx="15" cy="16" rx="1.5" ry="1.5" />
</g>
</symbol><radialGradient id="cart-icon1-02_shopping-cart-02_Path_22_4_" cx="7.656" cy="2.138" r="13.7991" gradientUnits="userSpaceOnUse">
		<stop offset="5.562841e-02" style="stop-color:#999999" />
		<stop offset="0.4248" style="stop-color:#8C8929" />
		<stop offset="0.852" style="stop-color:#878684" />
	</radialGradient><radialGradient id="cart-icon1-02_shopping-cart-02_Path_23_4_" cx="8.9749" cy="7.0956" r="7.3089" gradientUnits="userSpaceOnUse">
		<stop offset="5.562841e-02" style="stop-color:#999999" />
		<stop offset="0.4248" style="stop-color:#8C8929" />
		<stop offset="0.852" style="stop-color:#878684" />
	</radialGradient><radialGradient id="cart-icon1-02_shopping-cart-02_Ellipse_2_4_" cx="8.1596" cy="15.5" r="2.2059" gradientUnits="userSpaceOnUse">
		<stop offset="5.562841e-02" style="stop-color:#999999" />
		<stop offset="0.4248" style="stop-color:#8C8929" />
		<stop offset="0.852" style="stop-color:#878684" />
	</radialGradient><radialGradient id="cart-icon1-02_shopping-cart-02_Ellipse_3_4_" cx="14.9752" cy="16.0386" r="1.4718" gradientUnits="userSpaceOnUse">
		<stop offset="5.562841e-02" style="stop-color:#999999" />
		<stop offset="0.4248" style="stop-color:#8C8929" />
		<stop offset="0.852" style="stop-color:#878684" />
	</radialGradient><symbol viewBox="0 0 20 20" id="check-icon-01-01">
<style type="text/css">
	#check-icon-01-01 .st0{fill:#77CDF3;}
	#check-icon-01-01 .st1{opacity:0.24;}
	#check-icon-01-01 .st2{fill:url(#check-icon-01-01_SVGID_1_);}
	#check-icon-01-01 .st3{opacity:0.24;fill:none;stroke:#898989;stroke-width:3;stroke-linecap:round;stroke-linejoin:round;stroke-miterlimit:10;}
	#check-icon-01-01 .st4{fill:none;stroke:#FFFFFF;stroke-width:2;stroke-linecap:round;stroke-linejoin:round;stroke-miterlimit:10;}
</style>
<path class="st0" d="M15.9,18.5H4.1c-1.4,0-2.6-1.2-2.6-2.6V4.1c0-1.4,1.2-2.6,2.6-2.6h11.8c1.4,0,2.6,1.2,2.6,2.6v11.8
	C18.5,17.3,17.3,18.5,15.9,18.5z" />
<g class="st1">
	<image style="overflow:visible;" width="1016" height="1016" xlink:href="DACB45D2.png" transform="matrix(1 0 0 1 -498 -498)">
	</image>
</g>

<path class="st2" d="M14.5,16.3H5.6c-1.1,0-2-0.9-2-2V5.5c0-1.1,0.9-2,2-2h8.9c1.1,0,2,0.9,2,2v8.9C16.5,15.5,15.6,16.3,14.5,16.3z" />
</symbol><linearGradient id="check-icon-01-01_SVGID_1_" gradientUnits="userSpaceOnUse" x1="20.655" y1="21.4357" x2="-10.1748" y2="-12.0111">
	<stop offset="5.562830e-02" style="stop-color:#DEE1E2" />
	<stop offset="0.4248" style="stop-color:#FFFFFF" />
	<stop offset="0.8446" style="stop-color:#FFFFFF" />
</linearGradient><symbol viewBox="0 0 20 20" id="check-icon-02-02">
<style type="text/css">
	#check-icon-02-02 .st0{fill:#77CDF3;}
	#check-icon-02-02 .st1{opacity:0.24;}
	#check-icon-02-02 .st2{fill:url(#SVGID_1_);}
	#check-icon-02-02 .st3{opacity:0.24;fill:none;stroke:#898989;stroke-width:3;stroke-linecap:round;stroke-linejoin:round;stroke-miterlimit:10;}
	#check-icon-02-02 .st4{fill:none;stroke:#FFFFFF;stroke-width:2;stroke-linecap:round;stroke-linejoin:round;stroke-miterlimit:10;}
</style>
<path class="st0" d="M15.9,18.5H4.1c-1.4,0-2.6-1.2-2.6-2.6V4.1c0-1.4,1.2-2.6,2.6-2.6h11.8c1.4,0,2.6,1.2,2.6,2.6v11.8
	C18.5,17.3,17.3,18.5,15.9,18.5z" />
<g class="st1">
	
		<image style="overflow:visible;" width="1016" height="1016" xlink:href="1E5BF532.png" transform="matrix(1 0 0 1 -498 -475.1915)">
	</image>
</g>
<polyline class="st3" points="4.2,8.9 9.6,14.5 15.8,5.5 " />
<polyline class="st4" points="4.2,8.9 9.6,14.5 15.8,5.5 " />
</symbol><symbol viewBox="0 0 20 20" id="close-x-01">
<style type="text/css">
	#close-x-01 .st0{fill:none;stroke:#E3396A;stroke-width:4;stroke-linecap:round;stroke-miterlimit:10;}
</style>
<g>
	<line class="st0" x1="2.2" y1="2.3" x2="17.8" y2="17.7" />
</g>
<g>
	<line class="st0" x1="2.3" y1="17.8" x2="17.7" y2="2.2" />
</g>
</symbol><symbol viewBox="0 0 20 20" id="filter-icon-01-01">
<style type="text/css">
	#filter-icon-01-01 .st0{fill:none;stroke:#000000;stroke-width:1.7753;stroke-linecap:round;stroke-linejoin:round;stroke-miterlimit:10;}
	#filter-icon-01-01 .st1{fill:url(#filter-icon-01-01_SVGID_1_);}
	#filter-icon-01-01 .st2{fill:url(#filter-icon-01-01_SVGID_2_);}
	#filter-icon-01-01 .st3{fill:url(#filter-icon-01-01_SVGID_3_);}
	#filter-icon-01-01 .st4{opacity:0.36;fill:#E1E1E1;}
	#filter-icon-01-01 .st5{fill:url(#SVGID_4_);}
	#filter-icon-01-01 .st6{fill:url(#SVGID_5_);}
	#filter-icon-01-01 .st7{fill:url(#SVGID_6_);}
	#filter-icon-01-01 .st8{fill:url(#SVGID_7_);}
</style>
<g>
	<line class="st0" x1="2.4" y1="10" x2="17.6" y2="10" />
	<circle cx="8.6" cy="10" r="1.9" />
	
	<circle class="st1" cx="8.6" cy="10" r="1.1" />
</g>
<g>
	<line class="st0" x1="17.6" y1="3.4" x2="2.4" y2="3.4" />
	<circle cx="4.6" cy="3.4" r="1.9" />
	
		
	<circle class="st2" cx="4.6" cy="3.4" r="1.1" />
</g>
<g>
	<line class="st0" x1="2.4" y1="16.5" x2="17.6" y2="16.5" />
	<circle cx="15.4" cy="16.5" r="1.9" />
	
	<circle class="st3" cx="15.4" cy="16.5" r="1.1" />
</g>
</symbol><radialGradient id="filter-icon-01-01_SVGID_1_" cx="7.0351" cy="8.0495" r="11.4298" gradientUnits="userSpaceOnUse">
		<stop offset="0" style="stop-color:#000000" />
		<stop offset="0.5565" style="stop-color:#FFFFFF" />
		<stop offset="0.8594" style="stop-color:#E1E1E1" />
	</radialGradient><radialGradient id="filter-icon-01-01_SVGID_2_" cx="13.8415" cy="1.4537" r="11.4298" gradientTransform="matrix(-1 0 0 -1 20 6.8085)" gradientUnits="userSpaceOnUse">
		<stop offset="0" style="stop-color:#000000" />
		<stop offset="0.5565" style="stop-color:#FFFFFF" />
		<stop offset="0.8594" style="stop-color:#E1E1E1" />
	</radialGradient><radialGradient id="filter-icon-01-01_SVGID_3_" cx="13.8415" cy="14.5601" r="11.4298" gradientUnits="userSpaceOnUse">
		<stop offset="0" style="stop-color:#000000" />
		<stop offset="0.5565" style="stop-color:#FFFFFF" />
		<stop offset="0.8594" style="stop-color:#E1E1E1" />
	</radialGradient><symbol viewBox="0 0 20 20" id="filter-icon-02-02">
<style type="text/css">
	#filter-icon-02-02 .st0{fill:none;stroke:#000000;stroke-width:1.7753;stroke-linecap:round;stroke-linejoin:round;stroke-miterlimit:10;}
	#filter-icon-02-02 .st1{fill:url(#filter-icon-02-02_SVGID_1_);}
	#filter-icon-02-02 .st2{fill:url(#filter-icon-02-02_SVGID_2_);}
	#filter-icon-02-02 .st3{fill:url(#filter-icon-02-02_SVGID_3_);}
	#filter-icon-02-02 .st4{opacity:0.36;fill:#E1E1E1;}
	#filter-icon-02-02 .st5{fill:url(#SVGID_4_);}
	#filter-icon-02-02 .st6{fill:url(#SVGID_5_);}
	#filter-icon-02-02 .st7{fill:url(#SVGID_6_);}
	#filter-icon-02-02 .st8{fill:url(#SVGID_7_);}
</style>
<line class="st0" x1="2.4" y1="10" x2="17.6" y2="10" />
<circle cx="8.6" cy="10" r="1.9" />
<line class="st0" x1="17.6" y1="3.4" x2="2.4" y2="3.4" />
<circle cx="4.6" cy="3.4" r="1.9" />
<line class="st0" x1="2.4" y1="16.5" x2="17.6" y2="16.5" />
<circle cx="15.4" cy="16.5" r="1.9" />
<g>
	<circle class="st4" cx="15.4" cy="16.5" r="1.2" />
	
	<circle class="st1" cx="15.4" cy="16.5" r="1.1" />
</g>
<g>
	<circle class="st4" cx="8.6" cy="10" r="1.2" />
	
	<circle class="st2" cx="8.6" cy="10" r="1.1" />
</g>
<g>
	<circle class="st4" cx="4.6" cy="3.4" r="1.2" />
	
	<circle class="st3" cx="4.6" cy="3.4" r="1.1" />
</g>
</symbol><radialGradient id="filter-icon-02-02_SVGID_1_" cx="11.617" cy="13.0851" r="11.7324" gradientUnits="userSpaceOnUse">
		<stop offset="0" style="stop-color:#000000" />
		<stop offset="0.3939" style="stop-color:#E1E1E1" />
		<stop offset="1" style="stop-color:#FFFFFF" />
	</radialGradient><radialGradient id="filter-icon-02-02_SVGID_2_" cx="4.8106" cy="6.5532" r="11.7324" gradientUnits="userSpaceOnUse">
		<stop offset="0" style="stop-color:#000000" />
		<stop offset="0.3939" style="stop-color:#E1E1E1" />
		<stop offset="1" style="stop-color:#FFFFFF" />
	</radialGradient><radialGradient id="filter-icon-02-02_SVGID_3_" cx="0.7574" cy="-2.127660e-02" r="11.7324" gradientUnits="userSpaceOnUse">
		<stop offset="0" style="stop-color:#000000" />
		<stop offset="0.3939" style="stop-color:#E1E1E1" />
		<stop offset="1" style="stop-color:#FFFFFF" />
	</radialGradient><symbol viewBox="0 0 20 20" id="like-icon1-01">
<style type="text/css">
	#like-icon1-01 .st0{fill:none;stroke:url(#like-icon1-01_SVGID_1_);stroke-width:1.0329;stroke-miterlimit:10;}
</style>

<path class="st0" d="M17.9,7.2c0-2.8-1.9-5.1-4.4-5.1c-1.4,0-2.6,0.7-3.4,1.9l0,0l0,0C9.2,2.9,8,2.2,6.6,2.2c-2.5,0-4.4,2.3-4.4,5.1
	c0,1.3,0.5,2.5,1.1,3.4l0,0l0,0c0.2,0.2,0.4,0.4,0.6,0.6l6.2,6.6l6.2-6.6c0.2-0.2,0.4-0.4,0.6-0.6l0,0l0,0
	C17.4,9.7,17.9,8.5,17.9,7.2z" />
</symbol><radialGradient id="like-icon1-01_SVGID_1_" cx="10" cy="10.1208" r="8.4271" gradientUnits="userSpaceOnUse">
	<stop offset="5.562820e-02" style="stop-color:#ED8EAE" />
	<stop offset="0.4248" style="stop-color:#E3396A" />
	<stop offset="0.852" style="stop-color:#C6265C" />
</radialGradient><symbol viewBox="0 0 20 20" id="like-icon1-02-02">
<style type="text/css">
	#like-icon1-02-02 .st0{fill:url(#like-icon1-02-02_SVGID_1_);}
	#like-icon1-02-02 .st1{fill:none;stroke:#E3396A;stroke-width:1.7872;stroke-linecap:round;stroke-linejoin:round;stroke-miterlimit:10;}
</style>

<path class="st0" d="M18.5,7c0-3-2.1-5.5-4.8-5.5c-1.5,0-2.8,0.8-3.7,2.1l0,0l0,0C9.1,2.3,7.8,1.5,6.3,1.5C3.6,1.5,1.5,4,1.5,7
	c0,1.4,0.5,2.7,1.2,3.7l0,0l0,0c0.2,0.2,0.4,0.4,0.6,0.6l6.7,7.2l6.7-7.2c0.2-0.2,0.4-0.4,0.6-0.6l0,0v0C18,9.7,18.5,8.4,18.5,7z" />
</symbol><radialGradient id="like-icon1-02-02_SVGID_1_" cx="3.8511" cy="4.7021" r="18.2273" gradientUnits="userSpaceOnUse">
	<stop offset="5.562820e-02" style="stop-color:#ED8EAE" />
	<stop offset="0.4248" style="stop-color:#E3396A" />
	<stop offset="0.852" style="stop-color:#C6265C" />
</radialGradient><symbol viewBox="0 0 206.72 85.06" id="logo-landscape-dark-02"><defs><style>#logo-landscape-dark-02 .cls-1{fill:#e3396a;}#logo-landscape-dark-02 .cls-2{fill:#77cdf3;}#logo-landscape-dark-02 .cls-3{fill:#999897;}</style></defs><path class="cls-1" d="M101,44l1.9.4.9,27a1.42,1.42,0,0,1-1.5,1.3,1.82,1.82,0,0,1-1.4-.6,2.37,2.37,0,0,1-.9-1.5Z" /><path class="cls-1" d="M108.8,43.71a2.28,2.28,0,0,1,1.9,1,3.49,3.49,0,0,1,.8,2.2,2.6,2.6,0,0,1-.4,1.5,1.43,1.43,0,0,1-1.2.6,2.23,2.23,0,0,1-1.8-1,3.6,3.6,0,0,1-.7-2.2,2.82,2.82,0,0,1,.4-1.5A.92.92,0,0,1,108.8,43.71Zm-.6,7.5,1.9.4c.2,2.3.4,5.9.6,10.7s.3,7.9.3,9.1a1.42,1.42,0,0,1-1.5,1.3,1.82,1.82,0,0,1-1.4-.6,2.9,2.9,0,0,1-.9-1.5c.1-1.1.2-4.1.3-8.9.3-4.8.4-8.3.7-10.5Z" /><path class="cls-2" d="M115.7,44l1.9.4.9,27a1.42,1.42,0,0,1-1.5,1.3,1.82,1.82,0,0,1-1.4-.6,2.37,2.37,0,0,1-.9-1.5Z" /><path class="cls-2" d="M123.5,43.71a2.28,2.28,0,0,1,1.9,1,3.49,3.49,0,0,1,.8,2.2,2.82,2.82,0,0,1-.4,1.5,1.43,1.43,0,0,1-1.2.6,2.23,2.23,0,0,1-1.8-1,3.6,3.6,0,0,1-.7-2.2,2.82,2.82,0,0,1,.4-1.5A.92.92,0,0,1,123.5,43.71Zm-.6,7.5,1.9.4c.2,2.3.4,5.9.6,10.7s.3,7.9.3,9.1a1.42,1.42,0,0,1-1.5,1.3,1.82,1.82,0,0,1-1.4-.6,2.75,2.75,0,0,1-.8-1.5c0-1.1.2-4.1.3-8.9S122.7,53.41,122.9,51.21Z" /><path class="cls-2" d="M142.2,51.11l1.9-.4v2c.2,6.1.3,10.1.2,11.9v6.1a24.25,24.25,0,0,1-.2,4,14.49,14.49,0,0,1-.7,3.5,10.11,10.11,0,0,1-1.3,3,6.34,6.34,0,0,1-2.4,1.9,9.46,9.46,0,0,1-3.7.8c-1.2,0-3.4-.2-6.5-.5a4.4,4.4,0,0,0-.2-1,2.49,2.49,0,0,1-.1-.8,3.4,3.4,0,0,1,.1-1l2.6.3a18.7,18.7,0,0,0,3.4.3,5.23,5.23,0,0,0,4.4-1.8c1-1.2,1.6-3.4,1.6-6.6A8.21,8.21,0,0,1,137,74a6.45,6.45,0,0,1-3.3-.8,6.09,6.09,0,0,1-2.2-2,8.37,8.37,0,0,1-1.3-2.9,19.42,19.42,0,0,1-.7-3.3c-.1-1.1-.2-2.3-.2-3.4a13.55,13.55,0,0,1,2-7.6,6.77,6.77,0,0,1,6-3,8,8,0,0,1,4.7,1.5A3,3,0,0,0,142.2,51.11Zm-.4,17.5.1-13.4a2.35,2.35,0,0,0-1.6-1.2,7,7,0,0,0-2.9-.4,3.92,3.92,0,0,0-3.5,2.1,8.65,8.65,0,0,0-1.2,5c0,1,.1,2,.2,3a16.54,16.54,0,0,0,.7,3.2,5.6,5.6,0,0,0,1.6,2.8,4.11,4.11,0,0,0,2.8,1.1,4.65,4.65,0,0,0,2.3-.6A5.72,5.72,0,0,0,141.8,68.61Z" /><path class="cls-2" d="M148.1,42.61l2.1.5c.1,1.1.1,3,.2,5.5s.1,4.2.2,5.2a7.51,7.51,0,0,1,5.4-2.4,7,7,0,0,1,7,7.3v13.7a2.2,2.2,0,0,1-1.4.2,9.85,9.85,0,0,1-1.7-.2v-2c0-1.1,0-3-.1-5.6s-.1-4.9-.1-6.7c-.4-2.6-1.7-3.8-3.9-3.8a5.38,5.38,0,0,0-2.8.8,4.94,4.94,0,0,0-2,1.8c.1,1.8.1,4.4.2,7.9s.1,6.1.1,7.6a9.85,9.85,0,0,1-1.7.2,8.81,8.81,0,0,1-1.7-.2c0-1.4.1-3.5.1-6.5V49.71C148,47.21,148,44.81,148.1,42.61Z" /><path class="cls-2" d="M177.8,52.41l.5,1.9c-.8.1-1.9.2-3.5.4s-2.7.4-3.5.4a24.84,24.84,0,0,1,.2,3.8c0,1.6.1,2.9.1,4.1a20.85,20.85,0,0,0,.4,3.5,4.89,4.89,0,0,0,1.3,2.7,3.61,3.61,0,0,0,2.6.9,8.15,8.15,0,0,0,3.1-.6c.5,1,.9,1.8,1.2,2.3a18.92,18.92,0,0,1-6.7,1.2,3,3,0,0,1-2.2-.8,4.5,4.5,0,0,1-1.4-1.9,9.61,9.61,0,0,1-.8-2.9c-.2-1.1-.3-2.2-.4-3.3s-.1-2.2-.1-3.6v-5.6c-.3,0-.9.1-2,.1h-1.8c-.2-1.9-.3-2.8-.3-2.9a3.4,3.4,0,0,0,1,.1,6.25,6.25,0,0,0,1.2-.1,6.25,6.25,0,0,1,1.2-.1h.7c.1-3.1.2-5.6.4-7.5l1.9.5a17,17,0,0,0,.1,2.2,20.83,20.83,0,0,1,0,2.5v2.2c.7.1,1.8.1,3.3.2S177.1,52.41,177.8,52.41Z" /><path class="cls-2" d="M194.8,52.51l-.4,1.7a19.63,19.63,0,0,0-6.3-1.7,4.46,4.46,0,0,0-2.8.6c-.6.4-.8,1.3-.8,2.6a3.22,3.22,0,0,0,1.2,2.6,7.85,7.85,0,0,0,2.8,1.6c1.1.4,2.2.8,3.3,1.3a6.9,6.9,0,0,1,2.8,2,4.43,4.43,0,0,1,1.1,3.3,6.34,6.34,0,0,1-2,4.7,7,7,0,0,1-5.1,2,9.07,9.07,0,0,1-4.3-1,10.76,10.76,0,0,1-3.2-2.4l1.2-1.3c.3.1.8.4,1.5.7s1.1.5,1.4.6l1.2.3a9.85,9.85,0,0,0,1.7.2,6,6,0,0,0,3.2-.9,2.62,2.62,0,0,0,1.2-2.4,3,3,0,0,0-.6-1.8,4.43,4.43,0,0,0-1.5-1.2,22,22,0,0,0-2.1-.9c-.8-.3-1.5-.6-2.3-.9a14.32,14.32,0,0,1-2.1-1.2,4.26,4.26,0,0,1-1.5-2,7.65,7.65,0,0,1-.6-3,7,7,0,0,1,1.3-4.2,4.69,4.69,0,0,1,3.8-1.7,8.33,8.33,0,0,1,2.2.3,14.5,14.5,0,0,1,1.9.6c.5.2,1.2.4,2.1.8Z" /><rect class="cls-3" x="42.7" y="46.76" width="2.6" height="26" /><rect class="cls-3" x="42.3" y="40.86" width="3.5" height="3.5" /><polygon class="cls-3" points="13.6 70.26 13.6 36.06 11 36.06 11 72.86 13.6 72.86 13.6 72.86 35.5 72.86 35.5 70.26 13.6 70.26" /><polygon class="cls-3" points="50.5 18.06 30.8 18.06 37.6 1.16 50.5 1.16 50.5 18.06" /><rect class="cls-3" x="56.6" y="46.76" width="2.6" height="26" /><rect class="cls-3" x="56.1" y="40.86" width="3.5" height="3.5" /><polygon class="cls-3" points="88.3 36.06 88.3 70.26 66.4 70.26 66.4 72.86 88.3 72.86 88.3 72.86 91 72.86 91 36.06 88.3 36.06" /><path class="cls-3" d="M58,23.36v-5.3H71.1L64.4,1.16h-13v16.9h5.8v5.3a1.45,1.45,0,0,0-.7,1,1.1,1.1,0,1,0,2.2.2v-.2A1.2,1.2,0,0,0,58,23.36Z" /><path class="cls-3" d="M56.3,36.16a.52.52,0,0,0,.2-.4v-.1a.94.94,0,0,0-1-1H51.7V19H50.1v15.7H46.3a.94.94,0,0,0-1,1v.1a.76.76,0,0,0,.2.4H18.1v2.6H83.8v-2.6Z" /></symbol><symbol viewBox="0 0 206.72 85.06" id="logo-landscape-light-03"><defs><style>#logo-landscape-light-03 .cls-1{fill:#e3396a;}#logo-landscape-light-03 .cls-2{fill:#77cdf3;}#logo-landscape-light-03 .cls-3{fill:#c9c9c9;}</style></defs><path class="cls-1" d="M101,44l1.9.4.9,27a1.42,1.42,0,0,1-1.5,1.3,1.82,1.82,0,0,1-1.4-.6,2.37,2.37,0,0,1-.9-1.5Z" /><path class="cls-1" d="M108.8,43.71a2.28,2.28,0,0,1,1.9,1,3.49,3.49,0,0,1,.8,2.2,2.6,2.6,0,0,1-.4,1.5,1.43,1.43,0,0,1-1.2.6,2.23,2.23,0,0,1-1.8-1,3.6,3.6,0,0,1-.7-2.2,2.82,2.82,0,0,1,.4-1.5A.92.92,0,0,1,108.8,43.71Zm-.6,7.5,1.9.4c.2,2.3.4,5.9.6,10.7s.3,7.9.3,9.1a1.42,1.42,0,0,1-1.5,1.3,1.82,1.82,0,0,1-1.4-.6,2.9,2.9,0,0,1-.9-1.5c.1-1.1.2-4.1.3-8.9.3-4.8.4-8.3.7-10.5Z" /><path class="cls-2" d="M115.7,44l1.9.4.9,27a1.42,1.42,0,0,1-1.5,1.3,1.82,1.82,0,0,1-1.4-.6,2.37,2.37,0,0,1-.9-1.5Z" /><path class="cls-2" d="M123.5,43.71a2.28,2.28,0,0,1,1.9,1,3.49,3.49,0,0,1,.8,2.2,2.82,2.82,0,0,1-.4,1.5,1.43,1.43,0,0,1-1.2.6,2.23,2.23,0,0,1-1.8-1,3.6,3.6,0,0,1-.7-2.2,2.82,2.82,0,0,1,.4-1.5A.92.92,0,0,1,123.5,43.71Zm-.6,7.5,1.9.4c.2,2.3.4,5.9.6,10.7s.3,7.9.3,9.1a1.42,1.42,0,0,1-1.5,1.3,1.82,1.82,0,0,1-1.4-.6,2.75,2.75,0,0,1-.8-1.5c0-1.1.2-4.1.3-8.9S122.7,53.41,122.9,51.21Z" /><path class="cls-2" d="M142.2,51.11l1.9-.4v2c.2,6.1.3,10.1.2,11.9v6.1a24.25,24.25,0,0,1-.2,4,14.49,14.49,0,0,1-.7,3.5,10.11,10.11,0,0,1-1.3,3,6.34,6.34,0,0,1-2.4,1.9,9.46,9.46,0,0,1-3.7.8c-1.2,0-3.4-.2-6.5-.5a4.4,4.4,0,0,0-.2-1,2.49,2.49,0,0,1-.1-.8,3.4,3.4,0,0,1,.1-1l2.6.3a18.7,18.7,0,0,0,3.4.3,5.23,5.23,0,0,0,4.4-1.8c1-1.2,1.6-3.4,1.6-6.6A8.21,8.21,0,0,1,137,74a6.45,6.45,0,0,1-3.3-.8,6.09,6.09,0,0,1-2.2-2,8.37,8.37,0,0,1-1.3-2.9,19.42,19.42,0,0,1-.7-3.3c-.1-1.1-.2-2.3-.2-3.4a13.55,13.55,0,0,1,2-7.6,6.77,6.77,0,0,1,6-3,8,8,0,0,1,4.7,1.5A3,3,0,0,0,142.2,51.11Zm-.4,17.5.1-13.4a2.35,2.35,0,0,0-1.6-1.2,7,7,0,0,0-2.9-.4,3.92,3.92,0,0,0-3.5,2.1,8.65,8.65,0,0,0-1.2,5c0,1,.1,2,.2,3a16.54,16.54,0,0,0,.7,3.2,5.6,5.6,0,0,0,1.6,2.8,4.11,4.11,0,0,0,2.8,1.1,4.65,4.65,0,0,0,2.3-.6A5.72,5.72,0,0,0,141.8,68.61Z" /><path class="cls-2" d="M148.1,42.61l2.1.5c.1,1.1.1,3,.2,5.5s.1,4.2.2,5.2a7.51,7.51,0,0,1,5.4-2.4,7,7,0,0,1,7,7.3v13.7a2.2,2.2,0,0,1-1.4.2,9.85,9.85,0,0,1-1.7-.2v-2c0-1.1,0-3-.1-5.6s-.1-4.9-.1-6.7c-.4-2.6-1.7-3.8-3.9-3.8a5.38,5.38,0,0,0-2.8.8,4.94,4.94,0,0,0-2,1.8c.1,1.8.1,4.4.2,7.9s.1,6.1.1,7.6a9.85,9.85,0,0,1-1.7.2,8.81,8.81,0,0,1-1.7-.2c0-1.4.1-3.5.1-6.5V49.71C148,47.21,148,44.81,148.1,42.61Z" /><path class="cls-2" d="M177.8,52.41l.5,1.9c-.8.1-1.9.2-3.5.4s-2.7.4-3.5.4a24.84,24.84,0,0,1,.2,3.8c0,1.6.1,2.9.1,4.1a20.85,20.85,0,0,0,.4,3.5,4.89,4.89,0,0,0,1.3,2.7,3.61,3.61,0,0,0,2.6.9,8.15,8.15,0,0,0,3.1-.6c.5,1,.9,1.8,1.2,2.3a18.92,18.92,0,0,1-6.7,1.2,3,3,0,0,1-2.2-.8,4.5,4.5,0,0,1-1.4-1.9,9.61,9.61,0,0,1-.8-2.9c-.2-1.1-.3-2.2-.4-3.3s-.1-2.2-.1-3.6v-5.6c-.3,0-.9.1-2,.1h-1.8c-.2-1.9-.3-2.8-.3-2.9a3.4,3.4,0,0,0,1,.1,6.25,6.25,0,0,0,1.2-.1,6.25,6.25,0,0,1,1.2-.1h.7c.1-3.1.2-5.6.4-7.5l1.9.5a17,17,0,0,0,.1,2.2,20.83,20.83,0,0,1,0,2.5v2.2c.7.1,1.8.1,3.3.2S177.1,52.41,177.8,52.41Z" /><path class="cls-2" d="M194.8,52.51l-.4,1.7a19.63,19.63,0,0,0-6.3-1.7,4.46,4.46,0,0,0-2.8.6c-.6.4-.8,1.3-.8,2.6a3.22,3.22,0,0,0,1.2,2.6,7.85,7.85,0,0,0,2.8,1.6c1.1.4,2.2.8,3.3,1.3a6.9,6.9,0,0,1,2.8,2,4.43,4.43,0,0,1,1.1,3.3,6.34,6.34,0,0,1-2,4.7,7,7,0,0,1-5.1,2,9.07,9.07,0,0,1-4.3-1,10.76,10.76,0,0,1-3.2-2.4l1.2-1.3c.3.1.8.4,1.5.7s1.1.5,1.4.6l1.2.3a9.85,9.85,0,0,0,1.7.2,6,6,0,0,0,3.2-.9,2.62,2.62,0,0,0,1.2-2.4,3,3,0,0,0-.6-1.8,4.43,4.43,0,0,0-1.5-1.2,22,22,0,0,0-2.1-.9c-.8-.3-1.5-.6-2.3-.9a14.32,14.32,0,0,1-2.1-1.2,4.26,4.26,0,0,1-1.5-2,7.65,7.65,0,0,1-.6-3,7,7,0,0,1,1.3-4.2,4.69,4.69,0,0,1,3.8-1.7,8.33,8.33,0,0,1,2.2.3,14.5,14.5,0,0,1,1.9.6c.5.2,1.2.4,2.1.8Z" /><rect class="cls-3" x="42.7" y="46.76" width="2.6" height="26" /><rect class="cls-3" x="42.3" y="40.86" width="3.5" height="3.5" /><polygon class="cls-3" points="13.6 70.26 13.6 36.06 11 36.06 11 72.86 13.6 72.86 13.6 72.86 35.5 72.86 35.5 70.26 13.6 70.26" /><polygon class="cls-3" points="50.5 18.06 30.8 18.06 37.6 1.16 50.5 1.16 50.5 18.06" /><rect class="cls-3" x="56.6" y="46.76" width="2.6" height="26" /><rect class="cls-3" x="56.1" y="40.86" width="3.5" height="3.5" /><polygon class="cls-3" points="88.3 36.06 88.3 70.26 66.4 70.26 66.4 72.86 88.3 72.86 88.3 72.86 91 72.86 91 36.06 88.3 36.06" /><path class="cls-3" d="M58,23.36v-5.3H71.1L64.4,1.16h-13v16.9h5.8v5.3a1.45,1.45,0,0,0-.7,1,1.1,1.1,0,1,0,2.2.2v-.2A1.2,1.2,0,0,0,58,23.36Z" /><path class="cls-3" d="M56.3,36.16a.52.52,0,0,0,.2-.4v-.1a.94.94,0,0,0-1-1H51.7V19H50.1v15.7H46.3a.94.94,0,0,0-1,1v.1a.76.76,0,0,0,.2.4H18.1v2.6H83.8v-2.6Z" /></symbol><symbol viewBox="0 0 100.9 129.4" id="logo-portrait-dark-01"><defs><style>#logo-portrait-dark-01 .cls-1{fill:#e3396a;}#logo-portrait-dark-01 .cls-2{fill:#77cdf3;}#logo-portrait-dark-01 .cls-3{fill:#999897;}</style></defs><path class="cls-1" d="M3.59,88.3l1.9.4.9,27a1.42,1.42,0,0,1-1.5,1.3,1.82,1.82,0,0,1-1.4-.6,2.37,2.37,0,0,1-.9-1.5Z" /><path class="cls-1" d="M11.39,88a2.28,2.28,0,0,1,1.9,1,3.49,3.49,0,0,1,.8,2.2,2.6,2.6,0,0,1-.4,1.5,1.43,1.43,0,0,1-1.2.6,2.23,2.23,0,0,1-1.8-1,3.6,3.6,0,0,1-.7-2.2,2.82,2.82,0,0,1,.4-1.5A.92.92,0,0,1,11.39,88Zm-.6,7.5,1.9.4c.2,2.3.4,5.9.6,10.7s.3,7.9.3,9.1a1.42,1.42,0,0,1-1.5,1.3,1.82,1.82,0,0,1-1.4-.6,2.9,2.9,0,0,1-.9-1.5c.1-1.1.2-4.1.3-8.9.3-4.8.4-8.3.7-10.5Z" /><path class="cls-2" d="M18.29,88.3l1.9.4.9,27a1.42,1.42,0,0,1-1.5,1.3,1.82,1.82,0,0,1-1.4-.6,2.37,2.37,0,0,1-.9-1.5Z" /><path class="cls-2" d="M26.09,88A2.28,2.28,0,0,1,28,89a3.49,3.49,0,0,1,.8,2.2,2.82,2.82,0,0,1-.4,1.5,1.43,1.43,0,0,1-1.2.6,2.23,2.23,0,0,1-1.8-1,3.6,3.6,0,0,1-.7-2.2,2.82,2.82,0,0,1,.4-1.5A.92.92,0,0,1,26.09,88Zm-.6,7.5,1.9.4c.2,2.3.4,5.9.6,10.7s.3,7.9.3,9.1a1.42,1.42,0,0,1-1.5,1.3,1.82,1.82,0,0,1-1.4-.6,2.75,2.75,0,0,1-.8-1.5c0-1.1.2-4.1.3-8.9S25.29,97.7,25.49,95.5Z" /><path class="cls-2" d="M44.79,95.4l1.9-.4v2c.2,6.1.3,10.1.2,11.9V115a24.25,24.25,0,0,1-.2,4,14.49,14.49,0,0,1-.7,3.5,10.11,10.11,0,0,1-1.3,3,6.34,6.34,0,0,1-2.4,1.9,9.46,9.46,0,0,1-3.7.8c-1.2,0-3.4-.2-6.5-.5a4.4,4.4,0,0,0-.2-1,2.49,2.49,0,0,1-.1-.8,3.4,3.4,0,0,1,.1-1l2.6.3a18.7,18.7,0,0,0,3.4.3,5.23,5.23,0,0,0,4.4-1.8c1-1.2,1.6-3.4,1.6-6.6a8.21,8.21,0,0,1-4.3,1.2,6.45,6.45,0,0,1-3.3-.8,6.09,6.09,0,0,1-2.2-2,8.37,8.37,0,0,1-1.3-2.9,19.42,19.42,0,0,1-.7-3.3c-.1-1.1-.2-2.3-.2-3.4a13.55,13.55,0,0,1,2-7.6,6.77,6.77,0,0,1,6-3,8,8,0,0,1,4.7,1.5A3,3,0,0,0,44.79,95.4Zm-.4,17.5.1-13.4a2.35,2.35,0,0,0-1.6-1.2,7,7,0,0,0-2.9-.4,3.92,3.92,0,0,0-3.5,2.1,8.65,8.65,0,0,0-1.2,5c0,1,.1,2,.2,3a16.54,16.54,0,0,0,.7,3.2,5.6,5.6,0,0,0,1.6,2.8,4.11,4.11,0,0,0,2.8,1.1,4.65,4.65,0,0,0,2.3-.6A5.72,5.72,0,0,0,44.39,112.9Z" /><path class="cls-2" d="M50.69,86.9l2.1.5c.1,1.1.1,3,.2,5.5s.1,4.2.2,5.2a7.51,7.51,0,0,1,5.4-2.4,7,7,0,0,1,7,7.3v13.7a2.2,2.2,0,0,1-1.4.2,9.85,9.85,0,0,1-1.7-.2v-2c0-1.1,0-3-.1-5.6s-.1-4.9-.1-6.7c-.4-2.6-1.7-3.8-3.9-3.8a5.38,5.38,0,0,0-2.8.8,4.94,4.94,0,0,0-2,1.8c.1,1.8.1,4.4.2,7.9s.1,6.1.1,7.6a9.85,9.85,0,0,1-1.7.2,8.81,8.81,0,0,1-1.7-.2c0-1.4.1-3.5.1-6.5V94C50.59,91.5,50.59,89.1,50.69,86.9Z" /><path class="cls-2" d="M80.39,96.7l.5,1.9c-.8.1-1.9.2-3.5.4s-2.7.4-3.5.4a24.84,24.84,0,0,1,.2,3.8c0,1.6.1,2.9.1,4.1a20.85,20.85,0,0,0,.4,3.5,4.89,4.89,0,0,0,1.3,2.7,3.61,3.61,0,0,0,2.6.9,8.15,8.15,0,0,0,3.1-.6c.5,1,.9,1.8,1.2,2.3a18.92,18.92,0,0,1-6.7,1.2,3,3,0,0,1-2.2-.8,4.5,4.5,0,0,1-1.4-1.9,9.61,9.61,0,0,1-.8-2.9c-.2-1.1-.3-2.2-.4-3.3s-.1-2.2-.1-3.6V99.2c-.3,0-.9.1-2,.1h-1.8c-.2-1.9-.3-2.8-.3-2.9a3.4,3.4,0,0,0,1,.1,6.25,6.25,0,0,0,1.2-.1,6.25,6.25,0,0,1,1.2-.1h.7c.1-3.1.2-5.6.4-7.5l1.9.5a17,17,0,0,0,.1,2.2,20.83,20.83,0,0,1,0,2.5v2.2c.7.1,1.8.1,3.3.2S79.69,96.7,80.39,96.7Z" /><path class="cls-2" d="M97.39,96.8,97,98.5a19.63,19.63,0,0,0-6.3-1.7,4.46,4.46,0,0,0-2.8.6c-.6.4-.8,1.3-.8,2.6a3.22,3.22,0,0,0,1.2,2.6,7.85,7.85,0,0,0,2.8,1.6c1.1.4,2.2.8,3.3,1.3a6.9,6.9,0,0,1,2.8,2,4.43,4.43,0,0,1,1.1,3.3,6.34,6.34,0,0,1-2,4.7,7,7,0,0,1-5.1,2,9.07,9.07,0,0,1-4.3-1,10.76,10.76,0,0,1-3.2-2.4l1.2-1.3c.3.1.8.4,1.5.7s1.1.5,1.4.6l1.2.3a9.85,9.85,0,0,0,1.7.2,6,6,0,0,0,3.2-.9,2.62,2.62,0,0,0,1.2-2.4,3,3,0,0,0-.6-1.8,4.43,4.43,0,0,0-1.5-1.2,22,22,0,0,0-2.1-.9c-.8-.3-1.5-.6-2.3-.9a14.32,14.32,0,0,1-2.1-1.2,4.26,4.26,0,0,1-1.5-2,7.65,7.65,0,0,1-.6-3,7,7,0,0,1,1.3-4.2,4.69,4.69,0,0,1,3.8-1.7,8.33,8.33,0,0,1,2.2.3,14.5,14.5,0,0,1,1.9.6c.5.2,1.2.4,2.1.8Z" /><rect class="cls-3" x="42.39" y="46.8" width="2.6" height="26" /><rect class="cls-3" x="41.99" y="40.9" width="3.5" height="3.5" /><polygon class="cls-3" points="13.29 70.3 13.29 36.1 10.69 36.1 10.69 72.9 13.29 72.9 13.29 72.9 35.19 72.9 35.19 70.3 13.29 70.3" /><polygon class="cls-3" points="50.19 18.1 30.49 18.1 37.29 1.2 50.19 1.2 50.19 18.1" /><rect class="cls-3" x="56.29" y="46.8" width="2.6" height="26" /><rect class="cls-3" x="55.79" y="40.9" width="3.5" height="3.5" /><polygon class="cls-3" points="87.99 36.1 87.99 70.3 66.09 70.3 66.09 72.9 87.99 72.9 87.99 72.9 90.69 72.9 90.69 36.1 87.99 36.1" /><path class="cls-3" d="M57.69,23.4V18.1h13.1L64.09,1.2h-13V18.1h5.8v5.3a1.45,1.45,0,0,0-.7,1,1.1,1.1,0,1,0,2.2.2v-.2A1.2,1.2,0,0,0,57.69,23.4Z" /><path class="cls-3" d="M56,36.2a.52.52,0,0,0,.2-.4v-.1a.94.94,0,0,0-1-1h-3.8V19h-1.6V34.7H46a.94.94,0,0,0-1,1v.1a.76.76,0,0,0,.2.4H17.79v2.6h65.7V36.2Z" /></symbol><symbol viewBox="0 0 100.9 129.4" id="logo-portrait-light-04"><defs><style>#logo-portrait-light-04 .cls-1{fill:#e3396a;}#logo-portrait-light-04 .cls-2{fill:#77cdf3;}#logo-portrait-light-04 .cls-3{fill:#c9c9c9;}</style></defs><path class="cls-1" d="M3.59,88.3l1.9.4.9,27a1.42,1.42,0,0,1-1.5,1.3,1.82,1.82,0,0,1-1.4-.6,2.37,2.37,0,0,1-.9-1.5Z" /><path class="cls-1" d="M11.39,88a2.28,2.28,0,0,1,1.9,1,3.49,3.49,0,0,1,.8,2.2,2.6,2.6,0,0,1-.4,1.5,1.43,1.43,0,0,1-1.2.6,2.23,2.23,0,0,1-1.8-1,3.6,3.6,0,0,1-.7-2.2,2.82,2.82,0,0,1,.4-1.5A.92.92,0,0,1,11.39,88Zm-.6,7.5,1.9.4c.2,2.3.4,5.9.6,10.7s.3,7.9.3,9.1a1.42,1.42,0,0,1-1.5,1.3,1.82,1.82,0,0,1-1.4-.6,2.9,2.9,0,0,1-.9-1.5c.1-1.1.2-4.1.3-8.9.3-4.8.4-8.3.7-10.5Z" /><path class="cls-2" d="M18.29,88.3l1.9.4.9,27a1.42,1.42,0,0,1-1.5,1.3,1.82,1.82,0,0,1-1.4-.6,2.37,2.37,0,0,1-.9-1.5Z" /><path class="cls-2" d="M26.09,88A2.28,2.28,0,0,1,28,89a3.49,3.49,0,0,1,.8,2.2,2.82,2.82,0,0,1-.4,1.5,1.43,1.43,0,0,1-1.2.6,2.23,2.23,0,0,1-1.8-1,3.6,3.6,0,0,1-.7-2.2,2.82,2.82,0,0,1,.4-1.5A.92.92,0,0,1,26.09,88Zm-.6,7.5,1.9.4c.2,2.3.4,5.9.6,10.7s.3,7.9.3,9.1a1.42,1.42,0,0,1-1.5,1.3,1.82,1.82,0,0,1-1.4-.6,2.75,2.75,0,0,1-.8-1.5c0-1.1.2-4.1.3-8.9S25.29,97.7,25.49,95.5Z" /><path class="cls-2" d="M44.79,95.4l1.9-.4v2c.2,6.1.3,10.1.2,11.9V115a24.25,24.25,0,0,1-.2,4,14.49,14.49,0,0,1-.7,3.5,10.11,10.11,0,0,1-1.3,3,6.34,6.34,0,0,1-2.4,1.9,9.46,9.46,0,0,1-3.7.8c-1.2,0-3.4-.2-6.5-.5a4.4,4.4,0,0,0-.2-1,2.49,2.49,0,0,1-.1-.8,3.4,3.4,0,0,1,.1-1l2.6.3a18.7,18.7,0,0,0,3.4.3,5.23,5.23,0,0,0,4.4-1.8c1-1.2,1.6-3.4,1.6-6.6a8.21,8.21,0,0,1-4.3,1.2,6.45,6.45,0,0,1-3.3-.8,6.09,6.09,0,0,1-2.2-2,8.37,8.37,0,0,1-1.3-2.9,19.42,19.42,0,0,1-.7-3.3c-.1-1.1-.2-2.3-.2-3.4a13.55,13.55,0,0,1,2-7.6,6.77,6.77,0,0,1,6-3,8,8,0,0,1,4.7,1.5A3,3,0,0,0,44.79,95.4Zm-.4,17.5.1-13.4a2.35,2.35,0,0,0-1.6-1.2,7,7,0,0,0-2.9-.4,3.92,3.92,0,0,0-3.5,2.1,8.65,8.65,0,0,0-1.2,5c0,1,.1,2,.2,3a16.54,16.54,0,0,0,.7,3.2,5.6,5.6,0,0,0,1.6,2.8,4.11,4.11,0,0,0,2.8,1.1,4.65,4.65,0,0,0,2.3-.6A5.72,5.72,0,0,0,44.39,112.9Z" /><path class="cls-2" d="M50.69,86.9l2.1.5c.1,1.1.1,3,.2,5.5s.1,4.2.2,5.2a7.51,7.51,0,0,1,5.4-2.4,7,7,0,0,1,7,7.3v13.7a2.2,2.2,0,0,1-1.4.2,9.85,9.85,0,0,1-1.7-.2v-2c0-1.1,0-3-.1-5.6s-.1-4.9-.1-6.7c-.4-2.6-1.7-3.8-3.9-3.8a5.38,5.38,0,0,0-2.8.8,4.94,4.94,0,0,0-2,1.8c.1,1.8.1,4.4.2,7.9s.1,6.1.1,7.6a9.85,9.85,0,0,1-1.7.2,8.81,8.81,0,0,1-1.7-.2c0-1.4.1-3.5.1-6.5V94C50.59,91.5,50.59,89.1,50.69,86.9Z" /><path class="cls-2" d="M80.39,96.7l.5,1.9c-.8.1-1.9.2-3.5.4s-2.7.4-3.5.4a24.84,24.84,0,0,1,.2,3.8c0,1.6.1,2.9.1,4.1a20.85,20.85,0,0,0,.4,3.5,4.89,4.89,0,0,0,1.3,2.7,3.61,3.61,0,0,0,2.6.9,8.15,8.15,0,0,0,3.1-.6c.5,1,.9,1.8,1.2,2.3a18.92,18.92,0,0,1-6.7,1.2,3,3,0,0,1-2.2-.8,4.5,4.5,0,0,1-1.4-1.9,9.61,9.61,0,0,1-.8-2.9c-.2-1.1-.3-2.2-.4-3.3s-.1-2.2-.1-3.6V99.2c-.3,0-.9.1-2,.1h-1.8c-.2-1.9-.3-2.8-.3-2.9a3.4,3.4,0,0,0,1,.1,6.25,6.25,0,0,0,1.2-.1,6.25,6.25,0,0,1,1.2-.1h.7c.1-3.1.2-5.6.4-7.5l1.9.5a17,17,0,0,0,.1,2.2,20.83,20.83,0,0,1,0,2.5v2.2c.7.1,1.8.1,3.3.2S79.69,96.7,80.39,96.7Z" /><path class="cls-2" d="M97.39,96.8,97,98.5a19.63,19.63,0,0,0-6.3-1.7,4.46,4.46,0,0,0-2.8.6c-.6.4-.8,1.3-.8,2.6a3.22,3.22,0,0,0,1.2,2.6,7.85,7.85,0,0,0,2.8,1.6c1.1.4,2.2.8,3.3,1.3a6.9,6.9,0,0,1,2.8,2,4.43,4.43,0,0,1,1.1,3.3,6.34,6.34,0,0,1-2,4.7,7,7,0,0,1-5.1,2,9.07,9.07,0,0,1-4.3-1,10.76,10.76,0,0,1-3.2-2.4l1.2-1.3c.3.1.8.4,1.5.7s1.1.5,1.4.6l1.2.3a9.85,9.85,0,0,0,1.7.2,6,6,0,0,0,3.2-.9,2.62,2.62,0,0,0,1.2-2.4,3,3,0,0,0-.6-1.8,4.43,4.43,0,0,0-1.5-1.2,22,22,0,0,0-2.1-.9c-.8-.3-1.5-.6-2.3-.9a14.32,14.32,0,0,1-2.1-1.2,4.26,4.26,0,0,1-1.5-2,7.65,7.65,0,0,1-.6-3,7,7,0,0,1,1.3-4.2,4.69,4.69,0,0,1,3.8-1.7,8.33,8.33,0,0,1,2.2.3,14.5,14.5,0,0,1,1.9.6c.5.2,1.2.4,2.1.8Z" /><rect class="cls-3" x="42.39" y="46.8" width="2.6" height="26" /><rect class="cls-3" x="41.99" y="40.9" width="3.5" height="3.5" /><polygon class="cls-3" points="13.29 70.3 13.29 36.1 10.69 36.1 10.69 72.9 13.29 72.9 13.29 72.9 35.19 72.9 35.19 70.3 13.29 70.3" /><polygon class="cls-3" points="50.19 18.1 30.49 18.1 37.29 1.2 50.19 1.2 50.19 18.1" /><rect class="cls-3" x="56.29" y="46.8" width="2.6" height="26" /><rect class="cls-3" x="55.79" y="40.9" width="3.5" height="3.5" /><polygon class="cls-3" points="87.99 36.1 87.99 70.3 66.09 70.3 66.09 72.9 87.99 72.9 87.99 72.9 90.69 72.9 90.69 36.1 87.99 36.1" /><path class="cls-3" d="M57.69,23.4V18.1h13.1L64.09,1.2h-13V18.1h5.8v5.3a1.45,1.45,0,0,0-.7,1,1.1,1.1,0,1,0,2.2.2v-.2A1.2,1.2,0,0,0,57.69,23.4Z" /><path class="cls-3" d="M56,36.2a.52.52,0,0,0,.2-.4v-.1a.94.94,0,0,0-1-1h-3.8V19h-1.6V34.7H46a.94.94,0,0,0-1,1v.1a.76.76,0,0,0,.2.4H17.79v2.6h65.7V36.2Z" /></symbol><symbol viewBox="0 0 20 20" id="openBtnMenu-01">
<style type="text/css">
	#openBtnMenu-01 .st0{fill:none;stroke:#E3396A;stroke-width:3;stroke-linecap:round;stroke-miterlimit:10;}
</style>
<g>
	<line class="st0" x1="2.2" y1="2.3" x2="17.8" y2="2.2" />
</g>
<g>
	<line class="st0" x1="2.3" y1="17.8" x2="17.7" y2="17.8" />
</g>
<g>
	<line class="st0" x1="2.3" y1="10" x2="17.7" y2="10" />
</g>
</symbol></defs><use id="adelete-usage" xlink:href="#adelete" class="sprite-symbol-usage" /><use id="cart-icon1-01_shopping-cart-01-usage" xlink:href="#cart-icon1-01_shopping-cart-01" class="sprite-symbol-usage" /><use id="cart-icon1-02_shopping-cart-02-usage" xlink:href="#cart-icon1-02_shopping-cart-02" class="sprite-symbol-usage" /><use id="check-icon-01-01-usage" xlink:href="#check-icon-01-01" class="sprite-symbol-usage" /><use id="check-icon-02-02-usage" xlink:href="#check-icon-02-02" class="sprite-symbol-usage" /><use id="close-x-01-usage" xlink:href="#close-x-01" class="sprite-symbol-usage" /><use id="filter-icon-01-01-usage" xlink:href="#filter-icon-01-01" class="sprite-symbol-usage" /><use id="filter-icon-02-02-usage" xlink:href="#filter-icon-02-02" class="sprite-symbol-usage" /><use id="like-icon1-01-usage" xlink:href="#like-icon1-01" class="sprite-symbol-usage" /><use id="like-icon1-02-02-usage" xlink:href="#like-icon1-02-02" class="sprite-symbol-usage" /><use id="logo-landscape-dark-02-usage" xlink:href="#logo-landscape-dark-02" class="sprite-symbol-usage" /><use id="logo-landscape-light-03-usage" xlink:href="#logo-landscape-light-03" class="sprite-symbol-usage" /><use id="logo-portrait-dark-01-usage" xlink:href="#logo-portrait-dark-01" class="sprite-symbol-usage" /><use id="logo-portrait-light-04-usage" xlink:href="#logo-portrait-light-04" class="sprite-symbol-usage" /><use id="openBtnMenu-01-usage" xlink:href="#openBtnMenu-01" class="sprite-symbol-usage" /></svg>