<?xml version="1.0" encoding="utf-8"?>
<!-- Generator: Adobe Illustrator 25.1.0, SVG Export Plug-In . SVG Version: 6.00 Build 0)  -->
<svg version="1.1" id="Layer_1" xmlns="http://www.w3.org/2000/svg" xmlns:xlink="http://www.w3.org/1999/xlink" x="0px" y="0px"
	 viewBox="0 0 20 20" style="enable-background:new 0 0 20 20;" xml:space="preserve">
<style type="text/css">
	.st0{fill:url(#SVGID_1_);}
	.st1{fill:none;stroke:#E3396A;stroke-width:1.7872;stroke-linecap:round;stroke-linejoin:round;stroke-miterlimit:10;}
</style>
<radialGradient id="SVGID_1_" cx="3.8511" cy="4.7021" r="18.2273" gradientUnits="userSpaceOnUse">
	<stop  offset="5.562820e-02" style="stop-color:#ED8EAE"/>
	<stop  offset="0.4248" style="stop-color:#E3396A"/>
	<stop  offset="0.852" style="stop-color:#C6265C"/>
</radialGradient>
<path class="st0" d="M18.5,7c0-3-2.1-5.5-4.8-5.5c-1.5,0-2.8,0.8-3.7,2.1l0,0l0,0C9.1,2.3,7.8,1.5,6.3,1.5C3.6,1.5,1.5,4,1.5,7
	c0,1.4,0.5,2.7,1.2,3.7l0,0l0,0c0.2,0.2,0.4,0.4,0.6,0.6l6.7,7.2l6.7-7.2c0.2-0.2,0.4-0.4,0.6-0.6l0,0v0C18,9.7,18.5,8.4,18.5,7z"/>
</svg>
